<svg xmlns="http://www.w3.org/2000/svg" viewBox="0 0 480 360" font-family="ui-monospace, 'JetBrains Mono', 'SFMono-Regular', Menlo, monospace">
  <title>LayerLogic · FIG. A · gFET cross-section (light)</title>
  <rect width="480" height="360" fill="#F6F4EE"/>
  <g stroke="#D9D5CB" stroke-width="0.5" stroke-dasharray="1 4">
    <line x1="0" y1="80" x2="480" y2="80"/>
    <line x1="0" y1="180" x2="480" y2="180"/>
    <line x1="0" y1="280" x2="480" y2="280"/>
  </g>
  <g stroke="#B3AEA2" stroke-width="1">
    <path d="M10 10 L10 22 M10 10 L22 10"/>
    <path d="M470 10 L470 22 M470 10 L458 10"/>
    <path d="M10 350 L10 338 M10 350 L22 350"/>
    <path d="M470 350 L470 338 M470 350 L458 350"/>
  </g>
  <rect x="40" y="270" width="400" height="50" fill="#ECE9DF" stroke="#B3AEA2"/>
  <text x="240" y="299" text-anchor="middle" font-size="11" fill="#4F4F56">Si substrate</text>
  <rect x="40" y="240" width="400" height="30" fill="#DDD9CE" stroke="#B3AEA2"/>
  <text x="240" y="259" text-anchor="middle" font-size="10" fill="#4F4F56">SiO₂ dielectric</text>
  <rect x="60" y="210" width="80" height="30" fill="#DDD9CE" stroke="#0A0A0B"/>
  <rect x="340" y="210" width="80" height="30" fill="#DDD9CE" stroke="#0A0A0B"/>
  <text x="100" y="230" text-anchor="middle" font-size="11" fill="#0A0A0B">SOURCE</text>
  <text x="380" y="230" text-anchor="middle" font-size="11" fill="#0A0A0B">DRAIN</text>
  <line x1="140" y1="210" x2="340" y2="210" stroke="#047A70" stroke-width="2"/>
  <text x="240" y="130" text-anchor="middle" font-size="10" fill="#047A70">graphene monolayer</text>
  <g stroke="#0A0A0B" stroke-width="1.2" fill="none">
    <path d="M170 210 L170 180 M170 180 L160 168 M170 180 L180 168"/>
    <path d="M210 210 L210 180 M210 180 L200 168 M210 180 L220 168"/>
    <path d="M250 210 L250 180 M250 180 L240 168 M250 180 L260 168"/>
    <path d="M290 210 L290 180 M290 180 L280 168 M290 180 L300 168"/>
    <path d="M330 210 L330 180 M330 180 L320 168 M330 180 L340 168"/>
  </g>
  <circle cx="210" cy="160" r="5" fill="#047A70"/>
  <circle cx="290" cy="158" r="5" fill="#047A70"/>
  <text x="460" y="145" text-anchor="end" font-size="10" fill="#4F4F56">receptor + bound analyte</text>
  <line x1="40" y1="310" x2="20" y2="310" stroke="#0A0A0B"/>
  <line x1="20" y1="310" x2="20" y2="340" stroke="#0A0A0B"/>
  <text x="14" y="354" font-size="10" fill="#4F4F56">V_g</text>
  <line x1="60" y1="100" x2="420" y2="100" stroke="#047A70" stroke-dasharray="2 4" stroke-width="0.8"/>
  <text x="60" y="92" font-size="10" fill="#047A70">electrolyte interface</text>
  <text x="20" y="40" font-size="10" fill="#0A0A0B">FIG. A · gFET cross-section</text>
  <text x="460" y="40" text-anchor="end" font-size="10" fill="#6E6E74">scale: schematic</text>
</svg>
