<?xml version="1.0" encoding="utf-8"?>
<!-- Generator: Adobe Illustrator 28.1.0, SVG Export Plug-In . SVG Version: 6.00 Build 0)  -->
<svg version="1.1" xmlns="http://www.w3.org/2000/svg" xmlns:xlink="http://www.w3.org/1999/xlink" x="0px" y="0px"
	 viewBox="0 0 1407.7 819.6" style="enable-background:new 0 0 1407.7 819.6;" xml:space="preserve">
<style type="text/css">
	.st0{fill:#230059;}
	.st1{fill:#7C19F6;}
</style>
<g id="Full_logo_color">
	<g id="Logo">
		<g id="Text_logo">
			<g>
				<path class="st0" d="M157.6,612.6V455.1h22.5v139.8h72v17.8L157.6,612.6L157.6,612.6z"/>
				<path class="st0" d="M312.9,615.3c-9.3,0-17-1.6-23.2-4.7c-6.1-3.2-10.7-7.4-13.7-12.7c-3-5.3-4.5-11.1-4.5-17.4
					c0-7.3,2-13.7,5.9-19c3.9-5.3,9.5-9.4,16.7-12.3c7.2-2.8,15.9-4.3,26.1-4.3h29.3c0-6.6-1-12.1-2.9-16.4c-2-4.3-4.8-7.7-8.7-9.9
					c-3.8-2.2-8.7-3.4-14.5-3.4c-6.8,0-12.5,1.6-17.3,4.8c-4.8,3.2-7.8,8.1-9,14.7h-22.5c0.9-8.1,3.6-15,8.2-20.7
					c4.6-5.7,10.5-10,17.7-13.1c7.2-3,14.9-4.5,23-4.5c10.6,0,19.6,1.9,26.8,5.6s12.6,9,16.3,15.9c3.7,6.8,5.5,15,5.5,24.4v70.2
					h-19.6l-1.8-19.1c-1.5,3-3.4,5.8-5.7,8.5c-2.3,2.7-5,5-8.1,7c-3.1,2-6.6,3.5-10.5,4.6C322.2,614.8,317.8,615.3,312.9,615.3
					L312.9,615.3z M317.1,597.1c4.8,0,9.1-1,13.1-2.9c3.9-2,7.2-4.7,10-8.1c2.8-3.5,4.9-7.3,6.4-11.5c1.5-4.2,2.3-8.6,2.5-13.3v-0.5
					h-26.8c-6.6,0-11.9,0.8-15.9,2.2c-4,1.5-6.9,3.6-8.7,6.4c-1.8,2.8-2.7,6-2.7,9.6s0.9,6.8,2.6,9.5c1.7,2.7,4.3,4.8,7.6,6.3
					C308.7,596.3,312.6,597.1,317.1,597.1L317.1,597.1z"/>
				<path class="st0" d="M408.1,662.2l27.7-62.1h-6.5l-44.8-100.8h24.5l35.3,82.4l35.8-82.4h23.6l-72,163L408.1,662.2L408.1,662.2z"
					/>
				<path class="st0" d="M562.5,615.3c-10.8,0-20.4-2.5-28.7-7.4c-8.3-5-14.9-11.8-19.6-20.7c-4.7-8.8-7.1-19.2-7.1-31.1
					s2.3-22.2,6.9-31.2c4.6-8.9,11.1-15.9,19.6-20.9c8.5-5,18.3-7.5,29.4-7.5s20.6,2.5,28.6,7.4c8,5,14.1,11.5,18.3,19.6
					c4.3,8.1,6.4,17.1,6.4,27v5c0,1.8-0.2,3.7-0.5,5.6h-92.3v-15.8H594c-0.5-9.3-3.6-16.7-9.5-22.1c-5.8-5.4-13.1-8.1-21.8-8.1
					c-6.2,0-11.8,1.4-16.9,4.2c-5.1,2.8-9.2,6.8-12.2,12.2c-3,5.3-4.5,12-4.5,20.1v6.3c0,8.4,1.5,15.5,4.5,21.2
					c3,5.7,7,10.1,12,13.1c5,3,10.6,4.5,16.8,4.5c7.2,0,13.2-1.6,17.9-4.7c4.7-3.2,8.1-7.4,10.2-12.8h22.5c-2,6.9-5.2,13.1-9.9,18.6
					s-10.3,9.8-17.1,12.9C579.4,613.8,571.5,615.3,562.5,615.3L562.5,615.3z"/>
				<path class="st0" d="M639.5,612.6V499.2h20.3l1.8,21.4c2.7-5.1,6-9.4,10-12.9c4-3.5,8.8-6.3,14.4-8.2c5.6-2,11.9-2.9,18.8-2.9
					v23.6h-8.1c-4.7,0-9.1,0.6-13.3,1.8s-7.9,3.2-11,5.8c-3.2,2.7-5.7,6.3-7.5,10.9c-1.9,4.6-2.8,10.4-2.8,17.4v56.5L639.5,612.6
					L639.5,612.6z"/>
				<path class="st0" d="M724.5,612.6V455.1H747v139.8h72v17.8L724.5,612.6L724.5,612.6z"/>
				<path class="st0" d="M889.5,615.3c-10.8,0-20.5-2.5-29-7.4c-8.5-5-15.2-11.9-20-20.8c-4.8-8.9-7.2-19.2-7.2-31
					s2.4-22.5,7.3-31.4c4.9-8.9,11.6-15.9,20.1-20.8s18.2-7.4,28.8-7.4s20.4,2.5,28.8,7.4c8.4,5,15.1,11.9,20,20.7
					c5,8.8,7.4,19.3,7.4,31.3s-2.5,22.2-7.4,31.2c-5,8.9-11.7,15.9-20.1,20.8C909.7,612.9,900.2,615.3,889.5,615.3L889.5,615.3z
					 M889.3,596c6,0,11.5-1.5,16.5-4.5c5-3,9.1-7.5,12.3-13.5s4.7-13.3,4.7-22.1s-1.5-16.2-4.6-22.2c-3.1-5.9-7.1-10.4-12-13.4
					c-5-3-10.4-4.5-16.4-4.5s-11.6,1.5-16.7,4.5s-9.2,7.5-12.3,13.4c-3.1,5.9-4.6,13.3-4.6,22.2s1.5,16.1,4.6,22.1s7.1,10.5,12,13.5
					C877.8,594.5,883.3,596,889.3,596z"/>
				<path class="st0" d="M1010.8,664.8c-10.3,0-19.5-1.3-27.5-3.9s-14.1-6.6-18.5-12c-4.3-5.4-6.5-12-6.5-19.8c0-4,0.9-8.1,2.7-12.3
					s4.7-8.1,8.8-11.9c4-3.8,9.5-7.2,16.4-10l12.6,9.9c-7.7,3-12.8,6.5-15.4,10.5c-2.6,4-3.9,7.8-3.9,11.4c0,4.7,1.3,8.5,4,11.5
					s6.5,5.2,11.2,6.8s10.1,2.2,16,2.2s11.1-0.8,15.4-2.5c4.3-1.7,7.6-3.9,10-6.9c2.4-2.9,3.6-6.4,3.6-10.5c0-5.1-1.8-9.2-5.4-12.4
					s-10.5-5-20.7-5.6c-8.4-0.6-15.6-1.5-21.6-2.6s-11-2.4-15.1-3.8c-4-1.4-7.5-3.1-10.3-5c-2.8-1.9-5.2-3.8-7.2-5.7v-5.2l22.5-23
					l18.2,6.3l-24.5,22.5l4.7-10.1c1.7,1.2,3.3,2.3,4.8,3.3c1.6,1,3.6,1.8,6.1,2.6c2.5,0.8,5.9,1.4,10.2,2c4.3,0.6,10,1.2,16.9,1.8
					c10.4,0.8,18.7,2.5,25,5.3c6.3,2.8,10.8,6.6,13.6,11.4c2.8,4.8,4.2,10.7,4.2,17.6c0,6.5-1.8,12.6-5.3,18.3
					c-3.5,5.8-9,10.5-16.4,14.3S1022.5,664.8,1010.8,664.8L1010.8,664.8z M1010.8,577.8c-9.5,0-17.6-1.8-24.3-5.5
					c-6.8-3.7-11.9-8.5-15.4-14.6c-3.5-6.1-5.3-12.9-5.3-20.6s1.8-14.3,5.4-20.4c3.6-6.1,8.7-11,15.3-14.6
					c6.6-3.7,14.7-5.5,24.3-5.5s17.5,1.8,24.2,5.5c6.7,3.7,11.7,8.5,15.2,14.6s5.2,12.9,5.2,20.4s-1.7,14.5-5.2,20.6
					c-3.4,6.1-8.5,11-15.2,14.6C1028.3,575.9,1020.3,577.8,1010.8,577.8z M1010.8,559.7c7.3,0,13.2-1.9,17.4-5.7
					c4.3-3.8,6.4-9.4,6.4-16.8s-2.1-12.9-6.4-16.8c-4.3-3.8-10.1-5.7-17.4-5.7s-13.1,1.9-17.7,5.7c-4.6,3.8-6.9,9.4-6.9,16.8
					s2.2,12.9,6.6,16.8C997.4,557.8,1003.3,559.7,1010.8,559.7L1010.8,559.7z M1029.3,517l-5.4-17.8h46.6v15.3L1029.3,517
					L1029.3,517z"/>
				<path class="st0" d="M1197.6,615.3c-10.8,0-20.5-2.5-29.2-7.4c-8.6-5-15.3-11.9-20.2-20.9c-4.8-9-7.2-19.2-7.2-30.6
					c0-12,2.4-22.5,7.2-31.4c4.8-8.9,11.5-15.9,20.2-20.9s18.3-7.5,29.2-7.5c14,0,25.6,3.6,34.8,10.8s15.1,16.9,17.7,29h-23.4
					c-1.5-6.5-4.9-11.5-10.2-15.1c-5.3-3.6-11.7-5.4-19-5.4c-6,0-11.6,1.5-16.7,4.5s-9.2,7.5-12.2,13.4c-3,5.9-4.5,13.3-4.5,22.2
					c0,6.5,0.9,12.2,2.6,17.3c1.7,5.1,4.1,9.3,7.1,12.6c3,3.3,6.6,5.8,10.7,7.7c4.1,1.8,8.4,2.7,12.9,2.7c4.8,0,9.3-0.8,13.4-2.5
					c4.1-1.7,7.5-4,10.2-7.1c2.7-3.1,4.6-6.8,5.6-11.1h23.4c-2.6,11.8-8.5,21.5-17.8,28.8C1223,611.7,1211.4,615.3,1197.6,615.3
					L1197.6,615.3z"/>
				<polygon class="st0" points="1115,497.5 1115,612.6 1115,612.6 1103.8,619.1 1092.6,612.6 1092.5,612.6 1092.5,497.5 
					1103.8,491 				"/>
			</g>
			<polygon class="st1" points="1092.5,461.3 1092.5,474.3 1103.8,480.8 1115,474.3 1115,461.3 1103.8,454.8 			"/>
		</g>
	</g>
</g>
<g id="Lager_3">
	<polygon class="st0" points="797.8,238.7 832.3,218.8 832.3,179 797.8,159 763.3,179 763.3,218.8 	"/>
</g>
<g id="Lager_4">
	<polygon class="st0" points="841.6,324.5 884.7,299.6 884.7,249.8 841.6,224.9 798.5,249.8 798.5,299.6 	"/>
</g>
<g id="Lager_5">
	<path class="st1" d="M788,316.2l44.1,25.5v50.9L788,418l-44.1-25.5v-50.9L788,316.2L788,316.2z M788,307.4l-51.7,29.9V397
		l51.7,29.9l51.7-29.9v-59.8L788,307.4L788,307.4z"/>
</g>
<g id="Lager_7">
	<polygon class="st0" points="662,437.2 722.4,402.3 722.4,332.6 662,297.8 601.7,332.6 601.7,402.3 	"/>
</g>
<g id="Lager_2">
	<g id="Lager_6">
		<polygon class="st0" points="591.9,321.3 660.9,281.4 660.9,201.8 591.9,161.9 523,201.8 523,281.4 		"/>
	</g>
</g>
</svg>
