<?xml version="1.0" encoding="UTF-8"?>
<svg id="Full_logo_white" data-name="Full logo white" xmlns="http://www.w3.org/2000/svg" viewBox="0 0 1407.65 819.59">
  <defs>
    <style>
      .cls-1 {
        fill: #fff;
        stroke-width: 0px;
      }
    </style>
  </defs>
  <g id="Logo">
    <g id="Icon">
      <polygon class="cls-1" points="591.94 321.27 660.93 281.44 660.93 201.78 591.94 161.95 522.95 201.78 522.95 281.44 591.94 321.27"/>
      <polygon class="cls-1" points="662.05 437.19 722.42 402.34 722.42 332.63 662.05 297.78 601.69 332.63 601.69 402.34 662.05 437.19"/>
      <polygon class="cls-1" points="797.79 238.7 832.28 218.79 832.28 178.96 797.79 159.04 763.29 178.96 763.29 218.79 797.79 238.7"/>
      <polygon class="cls-1" points="841.57 324.49 884.69 299.6 884.69 249.81 841.57 224.92 798.45 249.81 798.45 299.6 841.57 324.49"/>
      <path class="cls-1" d="M788.03,316.22l44.09,25.45v50.91s-44.09,25.45-44.09,25.45l-44.09-25.45v-50.91l44.09-25.45h0ZM788.03,307.38l-51.74,29.87v59.75l51.74,29.87,51.74-29.87v-59.75s-51.74-29.87-51.74-29.87h0Z"/>
    </g>
    <g id="Text_logo" data-name="Text logo">
      <g>
        <path class="cls-1" d="M157.55,612.64v-157.56h22.51v139.77h72.03v17.78h-94.53Z"/>
        <path class="cls-1" d="M312.86,615.34c-9.31,0-17.03-1.57-23.18-4.73-6.15-3.15-10.73-7.39-13.73-12.72-3-5.32-4.5-11.14-4.5-17.44,0-7.35,1.95-13.69,5.85-19.02,3.9-5.32,9.45-9.41,16.66-12.27,7.2-2.85,15.9-4.28,26.11-4.28h29.26c0-6.6-.98-12.08-2.93-16.43-1.95-4.35-4.84-7.65-8.67-9.9-3.83-2.25-8.67-3.38-14.52-3.38-6.75,0-12.53,1.61-17.33,4.84-4.8,3.23-7.8,8.14-9,14.74h-22.51c.9-8.1,3.64-15,8.21-20.71,4.58-5.7,10.47-10.05,17.67-13.06,7.2-3,14.85-4.5,22.96-4.5,10.65,0,19.58,1.88,26.78,5.63,7.2,3.75,12.64,9.04,16.32,15.87,3.68,6.83,5.51,14.97,5.51,24.42v70.23h-19.58l-1.8-19.13c-1.5,3-3.42,5.85-5.74,8.55-2.33,2.7-5.03,5.03-8.1,6.98-3.08,1.95-6.57,3.49-10.47,4.61-3.9,1.13-8.33,1.69-13.28,1.69ZM317.13,597.11c4.8,0,9.15-.97,13.06-2.93,3.9-1.95,7.24-4.65,10.02-8.1,2.78-3.45,4.91-7.28,6.41-11.48,1.5-4.2,2.33-8.63,2.48-13.28v-.45h-26.78c-6.6,0-11.89.75-15.87,2.25-3.98,1.5-6.86,3.64-8.67,6.41-1.8,2.78-2.7,5.96-2.7,9.57s.86,6.75,2.59,9.45c1.72,2.7,4.28,4.8,7.65,6.3,3.38,1.5,7.32,2.25,11.82,2.25Z"/>
        <path class="cls-1" d="M408.06,662.15l27.68-62.12h-6.53l-44.79-100.83h24.53l35.34,82.38,35.79-82.38h23.63l-72.03,162.96h-23.63Z"/>
        <path class="cls-1" d="M562.47,615.34c-10.8,0-20.37-2.47-28.7-7.43-8.33-4.95-14.86-11.85-19.58-20.71-4.73-8.85-7.09-19.21-7.09-31.06s2.29-22.24,6.87-31.17c4.57-8.93,11.1-15.9,19.58-20.93,8.48-5.03,18.27-7.54,29.37-7.54s20.63,2.47,28.59,7.43c7.95,4.95,14.07,11.48,18.34,19.58,4.28,8.1,6.41,17.11,6.41,27.01v4.95c0,1.8-.15,3.68-.45,5.63h-92.28v-15.76h70.45c-.45-9.3-3.6-16.66-9.45-22.06-5.85-5.4-13.13-8.1-21.83-8.1-6.15,0-11.78,1.39-16.88,4.16-5.1,2.78-9.15,6.83-12.15,12.16-3,5.33-4.5,12.04-4.5,20.14v6.3c0,8.4,1.5,15.46,4.5,21.16,3,5.7,7.01,10.06,12.04,13.06,5.03,3,10.61,4.5,16.77,4.5,7.2,0,13.17-1.58,17.89-4.73,4.73-3.15,8.14-7.43,10.24-12.83h22.51c-1.95,6.9-5.25,13.09-9.9,18.57-4.65,5.48-10.35,9.79-17.11,12.94-6.75,3.15-14.63,4.73-23.63,4.73Z"/>
        <path class="cls-1" d="M639.45,612.64v-113.44h20.26l1.8,21.38c2.7-5.1,6.04-9.41,10.02-12.94,3.97-3.52,8.78-6.26,14.41-8.22,5.63-1.95,11.89-2.92,18.79-2.92v23.63h-8.1c-4.65,0-9.08.6-13.28,1.8-4.2,1.2-7.88,3.15-11.03,5.85s-5.67,6.34-7.54,10.92c-1.88,4.58-2.81,10.39-2.81,17.44v56.5h-22.51Z"/>
        <path class="cls-1" d="M724.52,612.64v-157.56h22.51v139.77h72.03v17.78h-94.53Z"/>
        <path class="cls-1" d="M889.51,615.34c-10.8,0-20.48-2.47-29.04-7.43-8.55-4.95-15.23-11.89-20.03-20.82-4.8-8.93-7.2-19.24-7.2-30.95s2.44-22.47,7.32-31.4c4.87-8.93,11.59-15.87,20.14-20.82,8.55-4.95,18.15-7.43,28.81-7.43s20.41,2.47,28.81,7.43c8.4,4.95,15.08,11.86,20.03,20.71,4.95,8.85,7.43,19.28,7.43,31.29s-2.47,22.25-7.43,31.17c-4.95,8.93-11.67,15.87-20.14,20.82-8.48,4.95-18.04,7.43-28.7,7.43ZM889.28,595.98c6,0,11.51-1.5,16.54-4.5,5.03-3,9.12-7.5,12.27-13.5,3.15-6,4.73-13.35,4.73-22.06s-1.54-16.24-4.61-22.17c-3.08-5.93-7.09-10.39-12.04-13.39-4.95-3-10.43-4.5-16.43-4.5s-11.56,1.5-16.66,4.5c-5.1,3-9.19,7.47-12.27,13.39-3.08,5.93-4.61,13.32-4.61,22.17s1.54,16.06,4.61,22.06c3.07,6,7.09,10.5,12.04,13.5,4.95,3,10.43,4.5,16.43,4.5Z"/>
        <path class="cls-1" d="M1010.83,664.85c-10.35,0-19.51-1.31-27.46-3.94-7.95-2.63-14.11-6.64-18.46-12.04-4.35-5.4-6.53-12.01-6.53-19.81,0-4.05.9-8.14,2.7-12.27,1.8-4.13,4.73-8.1,8.78-11.93,4.05-3.83,9.53-7.16,16.43-10.02l12.6,9.9c-7.65,3-12.79,6.49-15.42,10.47-2.63,3.97-3.94,7.76-3.94,11.37,0,4.65,1.35,8.48,4.05,11.48,2.7,3,6.45,5.25,11.25,6.75,4.8,1.5,10.13,2.25,15.98,2.25s11.14-.83,15.42-2.48c4.28-1.65,7.61-3.94,10.02-6.86,2.4-2.93,3.6-6.41,3.6-10.47,0-5.1-1.8-9.23-5.4-12.38-3.6-3.15-10.51-5.03-20.71-5.63-8.4-.6-15.61-1.46-21.61-2.59-6-1.13-11.03-2.4-15.08-3.83-4.05-1.42-7.5-3.07-10.35-4.95-2.85-1.87-5.25-3.79-7.2-5.74v-5.18l22.51-22.96,18.23,6.3-24.53,22.51,4.73-10.13c1.65,1.2,3.26,2.29,4.84,3.26,1.58.98,3.6,1.84,6.08,2.59,2.48.75,5.89,1.43,10.24,2.02,4.35.6,9.98,1.2,16.88,1.8,10.35.75,18.68,2.52,24.98,5.29,6.3,2.78,10.84,6.57,13.62,11.37,2.77,4.8,4.16,10.65,4.16,17.56,0,6.45-1.76,12.56-5.29,18.34-3.53,5.77-9,10.54-16.43,14.29-7.43,3.75-16.99,5.63-28.7,5.63ZM1010.83,577.75c-9.45,0-17.56-1.84-24.31-5.51-6.75-3.68-11.89-8.55-15.42-14.63-3.53-6.08-5.29-12.94-5.29-20.59s1.8-14.29,5.4-20.37c3.6-6.08,8.7-10.95,15.31-14.63,6.6-3.67,14.7-5.51,24.31-5.51s17.52,1.84,24.2,5.51c6.67,3.68,11.74,8.55,15.19,14.63,3.45,6.08,5.18,12.87,5.18,20.37s-1.73,14.52-5.18,20.59c-3.45,6.08-8.52,10.95-15.19,14.63-6.68,3.68-14.74,5.51-24.2,5.51ZM1010.83,559.74c7.35,0,13.17-1.91,17.44-5.74,4.28-3.83,6.41-9.41,6.41-16.77s-2.14-12.94-6.41-16.77c-4.28-3.83-10.09-5.74-17.44-5.74s-13.09,1.91-17.67,5.74c-4.58,3.83-6.86,9.42-6.86,16.77s2.21,12.94,6.64,16.77c4.42,3.83,10.39,5.74,17.89,5.74ZM1029.28,516.98l-5.4-17.78h46.59v15.31l-41.19,2.48Z"/>
        <path class="cls-1" d="M1197.64,615.34c-10.8,0-20.52-2.47-29.15-7.43-8.63-4.95-15.34-11.93-20.15-20.93-4.8-9-7.2-19.21-7.2-30.61,0-12,2.4-22.47,7.2-31.4,4.8-8.93,11.52-15.9,20.15-20.93,8.63-5.03,18.34-7.54,29.15-7.54,13.96,0,25.55,3.6,34.78,10.8,9.23,7.2,15.11,16.88,17.67,29.04h-23.41c-1.5-6.45-4.92-11.48-10.24-15.08-5.33-3.6-11.67-5.4-19.02-5.4-6,0-11.56,1.5-16.66,4.5-5.1,3-9.15,7.47-12.15,13.39-3,5.93-4.5,13.32-4.5,22.17,0,6.45.86,12.23,2.59,17.33,1.72,5.1,4.09,9.31,7.09,12.6,3,3.3,6.56,5.85,10.69,7.65,4.13,1.8,8.44,2.7,12.94,2.7,4.8,0,9.26-.82,13.39-2.47,4.13-1.65,7.54-4.01,10.24-7.09,2.7-3.07,4.58-6.79,5.63-11.14h23.41c-2.55,11.85-8.48,21.46-17.78,28.81-9.31,7.35-20.86,11.03-34.66,11.03Z"/>
        <polygon class="cls-1" points="1115.04 497.48 1115.04 612.63 1115.01 612.64 1103.79 619.12 1092.56 612.64 1092.53 612.63 1092.53 497.48 1103.79 490.99 1115.04 497.48"/>
      </g>
      <polygon class="cls-1" points="1092.53 461.32 1092.53 474.32 1103.78 480.82 1115.04 474.32 1115.04 461.32 1103.78 454.83 1092.53 461.32"/>
    </g>
  </g>
</svg>