<svg xmlns="http://www.w3.org/2000/svg" width="689" height="110.46" viewBox="0 0 689 110.46">
  <g id="Scientifica_-_POS" data-name="Scientifica - POS" transform="translate(-2580 -274.001)">
    <g id="Raggruppa_20222" data-name="Raggruppa 20222">
      <path id="Tracciato_21091" data-name="Tracciato 21091" d="M31.477,94.131a48.591,48.591,0,0,1-16.56-3.044A50.387,50.387,0,0,1,.448,83.144L0,82.782l4.96-6.67.479.372c8.362,6.438,17.271,9.7,26.478,9.7A20.015,20.015,0,0,0,44.458,82.35a12.151,12.151,0,0,0,4.9-10.085,9.357,9.357,0,0,0-4.773-8.586c-3.314-2.014-8.224-3.967-14.595-5.8-3.429-.978-5.932-1.716-7.495-2.206a63.83,63.83,0,0,1-6.666-2.662,22.9,22.9,0,0,1-6.405-3.928,20.843,20.843,0,0,1-3.778-5.211,15.511,15.511,0,0,1-1.758-7.4A19.217,19.217,0,0,1,11,21.131C15.68,17.2,21.783,15.2,29.129,15.2A47.764,47.764,0,0,1,56.01,23.512l.483.323-4.452,7.024-.506-.335c-7.394-4.9-15.032-7.379-22.7-7.379-4.923,0-8.944,1.215-11.945,3.608a11.07,11.07,0,0,0-4.473,9.135,7.772,7.772,0,0,0,1.161,4.095,11.834,11.834,0,0,0,2.791,3.213,22.807,22.807,0,0,0,4.711,2.633,56.32,56.32,0,0,0,5.369,2.107c1.5.487,3.583,1.112,6.362,1.9,3.721,1.081,6.792,2.07,9.139,2.95a44.822,44.822,0,0,1,7.655,3.864,17.324,17.324,0,0,1,6.224,6.311,17.834,17.834,0,0,1,2.056,8.72,20.066,20.066,0,0,1-7.628,16.3c-5.022,4.082-11.343,6.15-18.784,6.15" transform="translate(2580 290.041)" fill="#353233"/>
      <path id="Tracciato_21093" data-name="Tracciato 21093" d="M74.16,94.57A36.89,36.89,0,0,1,46.595,82.951,39.294,39.294,0,0,1,35.429,54.813,39.2,39.2,0,0,1,46.667,26.752a36.843,36.843,0,0,1,27.493-11.7c11.758,0,21.927,4.757,30.219,14.136l.368.415-5.8,5.971-.428-.44C90.654,27.083,82.4,23,74.01,23a27.674,27.674,0,0,0-20.9,9.341A31.968,31.968,0,0,0,44.4,54.813a31.744,31.744,0,0,0,8.781,22.543A28.476,28.476,0,0,0,74.6,86.627c8.679,0,16.87-4.224,24.344-12.557l.395-.446,6.173,5.486-.4.448C96.333,89.519,85.922,94.57,74.16,94.57" transform="translate(2617.398 289.891)" fill="#353233"/>
      <rect id="Rettangolo_14830" data-name="Rettangolo 14830" width="8.385" height="75.998" transform="translate(2741.119 306.707)" fill="#353233"/>
      <path id="Tracciato_21094" data-name="Tracciato 21094" d="M101.246,50.7h53.112A34.93,34.93,0,0,0,146.769,31c-4.454-5.4-10.716-8.142-18.6-8.142a24.337,24.337,0,0,0-18.338,8.1A32.71,32.71,0,0,0,101.246,50.7m28.383,43.874A35.668,35.668,0,0,1,103.32,83.394C96.052,75.98,92.366,66.315,92.366,54.67c0-11.055,3.482-20.517,10.348-28.124A33.428,33.428,0,0,1,128.46,15.055c10.4,0,18.919,3.823,25.314,11.361,6.374,7.507,9.606,17.063,9.606,28.4a25.114,25.114,0,0,1-.152,3.005l-.066.524h-61.92c.767,8.506,3.869,15.384,9.221,20.455a27.451,27.451,0,0,0,19.462,7.828c9.56,0,18.052-3.881,25.23-11.542l.4-.423,5.883,5.19-.419.45c-8.779,9.47-19.337,14.268-31.387,14.268" transform="translate(2677.498 289.891)" fill="#353233"/>
      <path id="Tracciato_21096" data-name="Tracciato 21096" d="M201.041,92.815h-8.385V47.778c0-7.628-2.07-13.762-6.152-18.229-4.068-4.444-9.793-6.695-17.01-6.695a24.428,24.428,0,0,0-18.126,7.375c-4.8,4.892-7.236,11.193-7.236,18.72V92.815h-8.385v-76h8.385V29.208c6.05-9.394,14.913-14.153,26.389-14.153,9.415,0,16.94,2.952,22.363,8.771s8.156,13.423,8.156,22.628Z" transform="translate(2723.291 289.891)" fill="#353233"/>
      <path id="Tracciato_21097" data-name="Tracciato 21097" d="M207.777,105.509c-6.286,0-11.5-1.8-15.505-5.361-4.027-3.573-6.07-8.88-6.07-15.772V35.985H175.348v-7.8H186.2V4.28h8.389V28.186h26.25v7.8H194.59V83.641c0,9.367,4.695,13.918,14.358,13.918a26.464,26.464,0,0,0,10.757-2.584l.843-.38v8.058l-.349.156a29.411,29.411,0,0,1-12.422,2.7" transform="translate(2765.092 278.518)" fill="#353233"/>
      <path id="Tracciato_21099" data-name="Tracciato 21099" d="M216.673,14.3H206.529V3.278h10.144Zm-.88,90.947H207.4v-76h8.389Z" transform="translate(2798.006 277.459)" fill="#353233"/>
      <path id="Tracciato_21100" data-name="Tracciato 21100" d="M290.137,17.759H279.991V6.737h10.146Zm-50.6,90.947h-8.383V40.5H220.3V32.709h10.853V25.973c0-8.73,2.278-15.435,6.769-19.935C241.936,2.032,247.361,0,254.041,0a35.052,35.052,0,0,1,11.347,1.788l.4.138v7.99l-.781-.238A37.655,37.655,0,0,0,254.041,7.8c-9.758,0-14.506,5.994-14.506,18.323v6.59h26.108V40.5H239.535Zm49.724,0h-8.381v-76h8.381Z" transform="translate(2812.541 274)" fill="#353233"/>
      <path id="Tracciato_21101" data-name="Tracciato 21101" d="M302.487,94.57a36.9,36.9,0,0,1-27.571-11.618,39.288,39.288,0,0,1-11.162-28.139,39.2,39.2,0,0,1,11.238-28.061,36.842,36.842,0,0,1,27.5-11.7c11.756,0,21.929,4.757,30.221,14.136l.364.415-5.8,5.971-.432-.44C318.975,27.083,310.732,23,302.337,23a27.693,27.693,0,0,0-20.905,9.341,31.965,31.965,0,0,0-8.709,22.474,31.747,31.747,0,0,0,8.783,22.543,28.463,28.463,0,0,0,21.419,9.271c8.677,0,16.874-4.224,24.342-12.557l.395-.446,6.169,5.486-.393.448c-8.777,9.961-19.195,15.012-30.951,15.012" transform="translate(2858.41 289.891)" fill="#353233"/>
      <path id="Tracciato_21102" data-name="Tracciato 21102" d="M336.078,52.618c-7.653,0-13.655,1.566-17.834,4.652a14.771,14.771,0,0,0-6.21,12.5,14.054,14.054,0,0,0,6.138,11.99,24.667,24.667,0,0,0,14.975,4.572c7.647,0,14.257-2.15,19.647-6.4,5.353-4.208,8.058-9.6,8.058-16.031V55.861a102.084,102.084,0,0,0-24.774-3.244M332.7,94.27a34.282,34.282,0,0,1-20.521-6.415c-5.955-4.3-8.973-10.337-8.973-17.939,0-7.795,3.1-13.982,9.2-18.381,6.041-4.354,14.149-6.561,24.112-6.561A97.3,97.3,0,0,1,360.7,48.021V45.567c0-7.217-2.1-12.8-6.255-16.572-4.175-3.788-10.156-5.712-17.785-5.712a50.734,50.734,0,0,0-23.195,5.947l-.574.3-3.11-7.433.518-.245c9.33-4.319,18.348-6.51,26.8-6.51,10.376,0,18.469,2.826,24.034,8.391,5.18,5.18,7.8,12.428,7.8,21.544V92.514H360.7V81.248c-6.765,8.646-16.175,13.022-28,13.022" transform="translate(2900.059 290.191)" fill="#353233"/>
    </g>
    <g id="Raggruppa_20223" data-name="Raggruppa 20223">
      <rect id="Rettangolo_14826" data-name="Rettangolo 14826" width="62.633" height="10.868" transform="translate(2715.715 281.068)" fill="#fff"/>
      <rect id="Rettangolo_14827" data-name="Rettangolo 14827" width="62.629" height="10.868" transform="translate(2653.086 281.068)" fill="#00873e"/>
      <rect id="Rettangolo_14828" data-name="Rettangolo 14828" width="62.631" height="10.868" transform="translate(2778.348 281.068)" fill="#da291c"/>
    </g>
  </g>
</svg>
